<mxfile host="app.diagrams.net" modified="2024-02-28T10:31:57.155Z" agent="Mozilla/5.0 (Windows NT 10.0; Win64; x64) AppleWebKit/537.36 (KHTML, like Gecko) Chrome/121.0.0.0 Safari/537.36" etag="WaRZxlNfJ1jvwsBYB2Fw" version="23.1.5" type="device">
  <diagram name="Page-1" id="BmxJJ-UUd7wjukWtLpmu">
    <mxGraphModel dx="1075" dy="435" grid="1" gridSize="10" guides="1" tooltips="1" connect="1" arrows="1" fold="1" page="1" pageScale="1" pageWidth="827" pageHeight="1169" math="0" shadow="0">
      <root>
        <mxCell id="0" />
        <mxCell id="1" parent="0" />
        <mxCell id="_0Ntk2IZJWFLokozGjno-1" value="Car&lt;div&gt;&lt;br/&gt;&lt;/div&gt;" style="swimlane;fontStyle=1;align=center;verticalAlign=top;childLayout=stackLayout;horizontal=1;startSize=26;horizontalStack=0;resizeParent=1;resizeParentMax=0;resizeLast=0;collapsible=1;marginBottom=0;whiteSpace=wrap;html=1;" vertex="1" parent="1">
          <mxGeometry x="320" y="40" width="240" height="470" as="geometry" />
        </mxCell>
        <mxCell id="_0Ntk2IZJWFLokozGjno-2" value=" - Brand: string &lt;br&gt;- Model: string &lt;br&gt;- StartYear: int &lt;br&gt;- EndYear: int &lt;br&gt;- EngineType: string &lt;br&gt;- HorsePower: int&lt;br&gt;- MaxSpeed: int &lt;br&gt;- Acceleration: float &lt;br&gt;- Pictures: List&amp;lt;string&amp;gt;" style="text;strokeColor=none;fillColor=none;align=left;verticalAlign=top;spacingLeft=4;spacingRight=4;overflow=hidden;rotatable=0;points=[[0,0.5],[1,0.5]];portConstraint=eastwest;whiteSpace=wrap;html=1;" vertex="1" parent="_0Ntk2IZJWFLokozGjno-1">
          <mxGeometry y="26" width="240" height="164" as="geometry" />
        </mxCell>
        <mxCell id="_0Ntk2IZJWFLokozGjno-3" value="" style="line;strokeWidth=1;fillColor=none;align=left;verticalAlign=middle;spacingTop=-1;spacingLeft=3;spacingRight=3;rotatable=0;labelPosition=right;points=[];portConstraint=eastwest;strokeColor=inherit;" vertex="1" parent="_0Ntk2IZJWFLokozGjno-1">
          <mxGeometry y="190" width="240" height="8" as="geometry" />
        </mxCell>
        <mxCell id="_0Ntk2IZJWFLokozGjno-4" value="+ Car(brand: string, model: string, startYear: int, endYear: int, engineType: string, horsePower: int, carBody: string, maxSpeed: int, acceleration: float, pictures: List&amp;lt;string&amp;gt;): void&lt;br&gt;+ GetBrand(): string &lt;br&gt;+ GetModel(): string &lt;br&gt;+ GetStartYear(): int &lt;br&gt;+ GetEndYear(): int &lt;br&gt;+ GetEngineType(): string&lt;br&gt;+ GetHorsePower(): int&lt;br&gt;+ GetMaxSpeed(): int &lt;br&gt;+ GetAcceleration(): float&lt;br&gt;+ GetPictures(): List&amp;lt;string&amp;gt;&lt;br&gt;+ AddPicture(picture: string): void&lt;br&gt;+ RemovePicture(picture: string): void" style="text;strokeColor=none;fillColor=none;align=left;verticalAlign=top;spacingLeft=4;spacingRight=4;overflow=hidden;rotatable=0;points=[[0,0.5],[1,0.5]];portConstraint=eastwest;whiteSpace=wrap;html=1;" vertex="1" parent="_0Ntk2IZJWFLokozGjno-1">
          <mxGeometry y="198" width="240" height="272" as="geometry" />
        </mxCell>
        <mxCell id="_0Ntk2IZJWFLokozGjno-5" value="Sedan" style="swimlane;fontStyle=1;align=center;verticalAlign=top;childLayout=stackLayout;horizontal=1;startSize=26;horizontalStack=0;resizeParent=1;resizeParentMax=0;resizeLast=0;collapsible=1;marginBottom=0;whiteSpace=wrap;html=1;" vertex="1" parent="1">
          <mxGeometry x="60" y="600" width="160" height="86" as="geometry" />
        </mxCell>
        <mxCell id="_0Ntk2IZJWFLokozGjno-6" value="+ field: type" style="text;strokeColor=none;fillColor=none;align=left;verticalAlign=top;spacingLeft=4;spacingRight=4;overflow=hidden;rotatable=0;points=[[0,0.5],[1,0.5]];portConstraint=eastwest;whiteSpace=wrap;html=1;" vertex="1" parent="_0Ntk2IZJWFLokozGjno-5">
          <mxGeometry y="26" width="160" height="26" as="geometry" />
        </mxCell>
        <mxCell id="_0Ntk2IZJWFLokozGjno-7" value="" style="line;strokeWidth=1;fillColor=none;align=left;verticalAlign=middle;spacingTop=-1;spacingLeft=3;spacingRight=3;rotatable=0;labelPosition=right;points=[];portConstraint=eastwest;strokeColor=inherit;" vertex="1" parent="_0Ntk2IZJWFLokozGjno-5">
          <mxGeometry y="52" width="160" height="8" as="geometry" />
        </mxCell>
        <mxCell id="_0Ntk2IZJWFLokozGjno-8" value="+ method(type): type" style="text;strokeColor=none;fillColor=none;align=left;verticalAlign=top;spacingLeft=4;spacingRight=4;overflow=hidden;rotatable=0;points=[[0,0.5],[1,0.5]];portConstraint=eastwest;whiteSpace=wrap;html=1;" vertex="1" parent="_0Ntk2IZJWFLokozGjno-5">
          <mxGeometry y="60" width="160" height="26" as="geometry" />
        </mxCell>
        <mxCell id="_0Ntk2IZJWFLokozGjno-9" value="Coupe" style="swimlane;fontStyle=1;align=center;verticalAlign=top;childLayout=stackLayout;horizontal=1;startSize=26;horizontalStack=0;resizeParent=1;resizeParentMax=0;resizeLast=0;collapsible=1;marginBottom=0;whiteSpace=wrap;html=1;" vertex="1" parent="1">
          <mxGeometry x="330" y="600" width="240" height="160" as="geometry" />
        </mxCell>
        <mxCell id="_0Ntk2IZJWFLokozGjno-10" value="- NrOfSeats: int" style="text;strokeColor=none;fillColor=none;align=left;verticalAlign=top;spacingLeft=4;spacingRight=4;overflow=hidden;rotatable=0;points=[[0,0.5],[1,0.5]];portConstraint=eastwest;whiteSpace=wrap;html=1;" vertex="1" parent="_0Ntk2IZJWFLokozGjno-9">
          <mxGeometry y="26" width="240" height="26" as="geometry" />
        </mxCell>
        <mxCell id="_0Ntk2IZJWFLokozGjno-11" value="" style="line;strokeWidth=1;fillColor=none;align=left;verticalAlign=middle;spacingTop=-1;spacingLeft=3;spacingRight=3;rotatable=0;labelPosition=right;points=[];portConstraint=eastwest;strokeColor=inherit;" vertex="1" parent="_0Ntk2IZJWFLokozGjno-9">
          <mxGeometry y="52" width="240" height="8" as="geometry" />
        </mxCell>
        <mxCell id="_0Ntk2IZJWFLokozGjno-12" value="+ HowFastIsIt(Acceleration: double): string" style="text;strokeColor=none;fillColor=none;align=left;verticalAlign=top;spacingLeft=4;spacingRight=4;overflow=hidden;rotatable=0;points=[[0,0.5],[1,0.5]];portConstraint=eastwest;whiteSpace=wrap;html=1;" vertex="1" parent="_0Ntk2IZJWFLokozGjno-9">
          <mxGeometry y="60" width="240" height="100" as="geometry" />
        </mxCell>
        <mxCell id="_0Ntk2IZJWFLokozGjno-13" value="SUV" style="swimlane;fontStyle=1;align=center;verticalAlign=top;childLayout=stackLayout;horizontal=1;startSize=26;horizontalStack=0;resizeParent=1;resizeParentMax=0;resizeLast=0;collapsible=1;marginBottom=0;whiteSpace=wrap;html=1;" vertex="1" parent="1">
          <mxGeometry x="650" y="600" width="160" height="134" as="geometry" />
        </mxCell>
        <mxCell id="_0Ntk2IZJWFLokozGjno-14" value="- Is7Seats: bool&lt;br&gt;-&amp;nbsp;IsItAllWheelDrive: bool" style="text;strokeColor=none;fillColor=none;align=left;verticalAlign=top;spacingLeft=4;spacingRight=4;overflow=hidden;rotatable=0;points=[[0,0.5],[1,0.5]];portConstraint=eastwest;whiteSpace=wrap;html=1;" vertex="1" parent="_0Ntk2IZJWFLokozGjno-13">
          <mxGeometry y="26" width="160" height="74" as="geometry" />
        </mxCell>
        <mxCell id="_0Ntk2IZJWFLokozGjno-15" value="" style="line;strokeWidth=1;fillColor=none;align=left;verticalAlign=middle;spacingTop=-1;spacingLeft=3;spacingRight=3;rotatable=0;labelPosition=right;points=[];portConstraint=eastwest;strokeColor=inherit;" vertex="1" parent="_0Ntk2IZJWFLokozGjno-13">
          <mxGeometry y="100" width="160" height="8" as="geometry" />
        </mxCell>
        <mxCell id="_0Ntk2IZJWFLokozGjno-16" value="+ method(type): type" style="text;strokeColor=none;fillColor=none;align=left;verticalAlign=top;spacingLeft=4;spacingRight=4;overflow=hidden;rotatable=0;points=[[0,0.5],[1,0.5]];portConstraint=eastwest;whiteSpace=wrap;html=1;" vertex="1" parent="_0Ntk2IZJWFLokozGjno-13">
          <mxGeometry y="108" width="160" height="26" as="geometry" />
        </mxCell>
      </root>
    </mxGraphModel>
  </diagram>
</mxfile>
